<svg xmlns="http://www.w3.org/2000/svg" viewBox="0 0 21.257 23.596">
  <defs>
    <style>
      .cls-1 {
        fill: none;
        stroke-linecap: round;
        stroke-linejoin: round;
      }

      .cls-2, .cls-3 {
        stroke: none;
      }

      .cls-3 {
        fill: #707070;
      }
    </style>
  </defs>
  <g id="Group_192" data-name="Group 192" transform="translate(-443 -652.349)">
    <g id="Path_146" data-name="Path 146" class="cls-1" transform="translate(446.342 661.24)">
      <path class="cls-2" d="M0,0H14.705l-1.62,14.705H1.806Z"/>
      <path class="cls-3" d="M 2.825729370117188 2.500003814697266 L 4.017329216003418 12.20516395568848 L 10.8453540802002 12.20516395568848 L 11.91460609436035 2.500003814697266 L 2.825729370117188 2.500003814697266 M 3.814697265625e-06 3.814697265625e-06 L 14.70516300201416 3.814697265625e-06 L 13.08504295349121 14.70516300201416 L 1.805503845214844 14.70516300201416 L 3.814697265625e-06 3.814697265625e-06 Z"/>
    </g>
    <g id="Path_145" data-name="Path 145" class="cls-1" transform="translate(443 663.871) rotate(-90)">
      <path class="cls-2" d="M0,21.257,11.521,10.532,0,0Z"/>
      <path class="cls-3" d="M 2.500002145767212 15.51437282562256 L 7.834383964538574 10.54897880554199 L 2.500002145767212 5.672554492950439 L 2.500002145767212 15.51437282562256 M 2.18750005842594e-06 21.25688171386719 L 2.18750005842594e-06 8.569335818719992e-07 L 11.52148246765137 10.53236103057861 L 2.18750005842594e-06 21.25688171386719 Z"/>
    </g>
  </g>
</svg>
